<?xml version="1.0" standalone="no"?>
<!DOCTYPE svg PUBLIC "-//W3C//DTD SVG 20010904//EN"
 "http://www.w3.org/TR/2001/REC-SVG-20010904/DTD/svg10.dtd">
<svg version="1.0" xmlns="http://www.w3.org/2000/svg"
 width="348.000000pt" height="348.000000pt" viewBox="0 0 348.000000 348.000000"
 preserveAspectRatio="xMidYMid meet">

<g transform="translate(0.000000,348.000000) scale(0.100000,-0.100000)"
  fill="#da251d" stroke="none">
<path d="M2995 2934 c-317 -130 -570 -233 -1380 -564 -203 -83 -527 -216 -720
-294 -192 -79 -415 -169 -494 -201 -79 -32 -170 -76 -202 -96 -96 -62 -149
-157 -134 -238 17 -92 38 -119 313 -388 l267 -262 115 -1 c112 0 114 0 95 18
-11 11 -146 133 -300 273 -154 140 -288 263 -297 274 -10 11 -23 37 -30 59
-15 48 -1 76 59 122 56 43 -78 -6 1338 491 55 19 125 44 155 55 30 11 136 48
235 83 99 35 243 86 320 113 77 27 270 96 430 152 159 56 307 111 328 121 46
24 110 86 133 131 24 46 105 269 102 279 -2 4 -151 -53 -333 -127z"/>
<path d="M2920 2453 c-107 -35 -325 -107 -485 -159 -159 -53 -425 -140 -590
-194 -279 -91 -1058 -346 -1310 -427 -200 -65 -245 -91 -245 -140 0 -27 56
-93 79 -93 9 0 151 35 316 78 276 72 300 80 305 102 3 13 12 27 20 31 8 5 107
33 220 63 353 92 1072 284 1511 402 116 31 171 69 247 169 48 64 138 223 130
229 -1 2 -91 -26 -198 -61z"/>
<path d="M2530 1940 c-168 -43 -566 -144 -885 -225 -319 -80 -611 -155 -650
-165 -38 -10 -171 -44 -295 -75 -124 -31 -243 -61 -264 -66 l-39 -11 64 -58
c38 -35 73 -59 87 -60 13 0 116 16 230 35 114 20 271 47 350 60 79 14 147 25
151 25 5 0 6 11 4 23 -6 32 3 35 287 90 382 75 830 165 907 182 85 19 168 67
241 138 53 51 127 159 120 176 -2 4 -140 -27 -308 -69z"/>
<path d="M2170 1525 c-162 -30 -333 -61 -380 -69 -114 -20 -579 -103 -930
-166 -156 -28 -285 -52 -286 -53 -1 -1 35 -36 80 -79 l82 -76 125 14 c68 8
221 25 339 38 118 14 263 30 322 37 104 11 107 13 102 34 -3 13 0 26 6 30 7 4
130 23 274 41 143 18 279 38 301 45 106 30 238 130 292 222 l22 37 -27 -1
c-15 -1 -160 -25 -322 -54z"/>
<path d="M1555 1135 c-60 -7 -245 -27 -410 -44 -165 -17 -315 -34 -333 -37
l-33 -5 83 -79 83 -79 595 -1 595 0 -55 33 c-206 125 -388 227 -400 226 -8 -1
-64 -7 -125 -14z"/>
<path d="M953 810 c-109 -23 -174 -86 -181 -175 -6 -72 2 -98 44 -145 54 -60
106 -75 254 -75 112 0 130 3 170 24 91 47 123 95 123 183 0 77 -32 126 -107
163 -47 23 -71 28 -158 31 -57 2 -122 -1 -145 -6z m171 -85 c58 -28 87 -117
56 -175 -30 -57 -134 -79 -184 -39 -75 59 -72 161 7 209 38 24 78 25 121 5z"/>
<path d="M70 765 c0 -33 2 -35 35 -35 l35 0 0 -115 0 -115 -35 0 c-34 0 -35
-1 -35 -40 l0 -40 150 0 150 0 0 40 c0 39 -1 40 -35 40 -33 0 -35 2 -35 35 l0
35 110 0 110 0 0 -35 c0 -33 -2 -35 -35 -35 -34 0 -35 -1 -35 -40 l0 -40 150
0 150 0 0 40 c0 39 -1 40 -35 40 l-35 0 0 115 0 115 35 0 c33 0 35 2 35 35 l0
35 -150 0 -150 0 0 -35 c0 -33 2 -35 35 -35 34 0 35 -1 35 -40 l0 -40 -110 0
-110 0 0 40 c0 39 1 40 35 40 33 0 35 2 35 35 l0 35 -150 0 -150 0 0 -35z"/>
<path d="M1390 765 c0 -33 2 -35 35 -35 l35 0 0 -115 0 -115 -35 0 c-34 0 -35
-1 -35 -40 l0 -40 120 0 120 0 0 40 0 40 -40 0 -40 0 0 95 c0 52 3 95 8 94 4
0 26 -26 48 -57 23 -31 70 -92 103 -134 l61 -78 115 0 115 0 0 155 0 155 35 0
c33 0 35 2 35 35 l0 35 -120 0 -120 0 0 -35 c0 -33 2 -35 35 -35 l35 0 0 -95
c0 -52 -2 -95 -4 -95 -2 0 -48 58 -102 130 l-99 129 -152 1 -153 0 0 -35z"/>
<path d="M2120 766 c0 -34 2 -36 35 -36 l35 0 0 -115 0 -115 -35 0 c-34 0 -35
-1 -35 -40 l0 -40 178 0 c354 1 426 32 426 185 0 81 -26 132 -85 165 -43 24
-49 25 -281 28 l-238 3 0 -35z m365 -46 c57 -13 85 -49 85 -109 0 -53 -22 -86
-68 -98 -36 -10 -146 -10 -149 0 -2 4 -3 54 -3 112 l0 105 48 0 c26 0 65 -5
87 -10z"/>
<path d="M2850 765 c0 -34 1 -35 40 -35 22 0 40 -2 40 -5 0 -2 -27 -54 -61
-115 l-60 -110 -40 0 c-39 0 -39 0 -39 -40 l0 -40 125 0 125 0 0 39 c0 38 -1
40 -35 43 -35 3 -35 4 -20 26 15 20 24 22 109 22 77 0 96 -3 109 -18 24 -27
21 -32 -18 -32 -34 0 -35 -1 -35 -40 l0 -40 165 0 165 0 0 40 c0 40 0 40 -39
40 l-39 0 -88 150 -89 150 -157 0 -158 0 0 -35z m220 -90 c17 -25 28 -45 25
-46 -36 -4 -105 0 -104 7 2 13 39 84 44 84 2 0 18 -20 35 -45z"/>
</g>
</svg>
